# xmcd CD database file
#
# Track frame offsets:
#	150
#	26190
#	52248
#	76301
#	101759
#	121620
#	144897
#	165406
#	183878
#	212729
#	232655
#	252702
#
# Disc length: 3752 seconds
#
# Revision: 3
# Processed by: cddbd v1.5.2PL0 Copyright (c) Steve Scherf et al.
# Submitted via: CDex 1.51
#
DISCID=9a0ea60c
DTITLE=BRAZEN ABBOT - My Resurrection
DYEAR=2005
DGENRE=Hard Rock
TTITLE0=My Resurrection
TTITLE1=Bad Madman
TTITLE2=Godforsaken
TTITLE3=Dreams
TTITLE4=Flyin' Blind
TTITLE5=Another Day Gone
TTITLE6=More Than Money
TTITLE7=The Shadows
TTITLE8=Beggar's Lane
TTITLE9=Rage Of Angels
TTITLE10=Lost
TTITLE11=Shades Of Grey
EXTD=YEAR: 2005
EXTT0=
EXTT1=
EXTT2=
EXTT3=
EXTT4=
EXTT5=
EXTT6=
EXTT7=
EXTT8=
EXTT9=
EXTT10=
EXTT11=
PLAYORDER=
